<?xml version="1.0" encoding="utf-8"?>
<!-- Generator: Adobe Illustrator 16.0.0, SVG Export Plug-In . SVG Version: 6.00 Build 0)  -->
<!DOCTYPE svg PUBLIC "-//W3C//DTD SVG 1.1//EN" "http://www.w3.org/Graphics/SVG/1.1/DTD/svg11.dtd">
<svg version="1.1" id="Layer_1" xmlns="http://www.w3.org/2000/svg" xmlns:xlink="http://www.w3.org/1999/xlink" x="0px" y="0px"
	 width="960px" height="560px" viewBox="0 0 960 560" enable-background="new 0 0 960 560" xml:space="preserve">
<g>
	<text transform="matrix(1 0 0 1 9.8691 402.8359)" fill="#5DD7F6" font-family="'Mistral'" font-size="470.2971">Progm</text>
	<text transform="matrix(0.8954 0 0 1 12.8428 473.0313)" fill="#BABABF" font-family="'SitkaBanner'" font-size="65.8809">Conecta você ao mundo</text>
	<g id="Globe_10_">
		<g>
			<g id="globe_10_">
				<g>
					
						<radialGradient id="SVGID_1_" cx="994.9141" cy="403.6953" r="132.0778" gradientTransform="matrix(0.4509 0 0 0.4441 454.9802 39.3298)" gradientUnits="userSpaceOnUse">
						<stop  offset="0" style="stop-color:#27AAE1"/>
						<stop  offset="0.1256" style="stop-color:#25A5DD"/>
						<stop  offset="0.281" style="stop-color:#2196D0"/>
						<stop  offset="0.4519" style="stop-color:#197CBB"/>
						<stop  offset="0.6341" style="stop-color:#0E599E"/>
						<stop  offset="0.8233" style="stop-color:#012D78"/>
						<stop  offset="0.8342" style="stop-color:#002A76"/>
						<stop  offset="0.8585" style="stop-color:#03357F"/>
						<stop  offset="0.9009" style="stop-color:#0C5297"/>
						<stop  offset="0.9561" style="stop-color:#1A80BE"/>
						<stop  offset="1" style="stop-color:#27AAE1"/>
					</radialGradient>
					<path fill="url(#SVGID_1_)" d="M953.564,225.866c0,28-23.043,50.692-51.466,50.692c-28.425,0-51.466-22.692-51.466-50.692
						c0-27.997,23.041-50.692,51.466-50.692C930.521,175.174,953.564,197.869,953.564,225.866z"/>
					
						<radialGradient id="SVGID_2_" cx="988.6064" cy="393.0234" r="133.8653" gradientTransform="matrix(0.4509 0 0 0.4441 454.9802 39.3298)" gradientUnits="userSpaceOnUse">
						<stop  offset="0" style="stop-color:#27AAE1"/>
						<stop  offset="0.1987" style="stop-color:#2AABE1"/>
						<stop  offset="0.3466" style="stop-color:#33AEE1"/>
						<stop  offset="0.4781" style="stop-color:#44B3E2"/>
						<stop  offset="0.6001" style="stop-color:#5ABAE3"/>
						<stop  offset="0.7154" style="stop-color:#78C4E4"/>
						<stop  offset="0.8259" style="stop-color:#9CCFE5"/>
						<stop  offset="0.9305" style="stop-color:#C6DDE7"/>
						<stop  offset="1" style="stop-color:#E6E7E8"/>
					</radialGradient>
					<path fill="url(#SVGID_2_)" d="M951.382,239.782c-0.68,0.016-1.565,0.331-1.579,0.561s-0.946,0.643-1.254,0.764
						c-0.312,0.125-0.909,1.066-1.042,1.376c-0.134,0.31-0.896,0.218-1.181,0.344c-0.28,0.122-0.863,0.583-0.868,0.862
						c0,0.275-0.161,0.248-0.349-0.071c0,0,0,0-0.373,0.388c-0.436,0.482-0.436,0.482-0.436,0.482
						c-0.257,0.781-1.093,1.764-1.383,1.847c-0.289,0.078-0.339,1.451-0.339,2.002c0,0.554,0.214,1.233,0.486,1.516
						c0,0,0,0,0.059,0.436c0.093,0.875,0.093,0.875,0.093,0.875c-0.151,0.673,0.367,1.277,0.52,1.395
						c0.146,0.115,1.423-0.225,1.915-0.342c0.201-0.044,0.454-0.159,0.692-0.275c2.279-3.757,4.07-7.832,5.31-12.132
						C951.557,239.792,951.466,239.781,951.382,239.782z M866.238,241.084c-0.073,0.136,0.844,1.07,1.207,1.383
						c0.354,0.324,1.115,1.843,1.269,2.347c0.155,0.499,0.063,1.318,0.013,1.511c-0.045,0.19,0.175,0.612,0.212,0.792
						c0.026,0.174-0.317,1.669-0.185,2.271c0.134,0.599-0.717,2.476-0.698,3.406c0.023,0.932,0.451,2.145,0.626,2.052
						c0.17-0.089,0.229,0.85-0.056,0.96c-0.293,0.115-0.629,0.855-0.465,0.894c0.161,0.04-0.013,0.767,0.034,1.063
						c0.045,0.292,0.293,2.225,0.349,2.708c0.054,0.482,0.752,1.656,0.899,2.053c0.147,0.399,0.294,1.155,0.354,1.268
						c0.055,0.117,0.127,0.237,0.132,0.241c0.014,0.005,0.579,0.209,0.74,0.331c0.165,0.12,1.268,0.046,1.63-0.03
						c0.364-0.071,0.028-0.395-0.133-0.569c-0.166-0.18-0.307-1.038-0.497-1.128c-0.183-0.081-0.262-1.175-0.101-1.417
						c0.166-0.243,0.827-0.631,0.896-0.831c0.068-0.205,0.092-1.155-0.082-1.289c-0.18-0.131,0.05-1.287-0.084-1.86
						c-0.133-0.574,1.01-1.095,1.08-1.55c0.064-0.455,1.305-0.944,1.588-1.171c0.28-0.229,0.523-1.531,0.391-1.814
						c-0.138-0.277,0.46-0.507,0.727-0.507c0.262,0,0.556-0.187,0.656-0.187c0.101-0.001,0.413-0.578,0.584-0.711
						c0.17-0.133,0.523-1.511,0.831-1.736c0.304-0.226,0.561-1.056,0.561-1.302c0-0.243,0.473-0.969,0.629-1.187
						c0.151-0.218,1.309-0.739,1.516-0.822c0.206-0.085,0.519-1.917,0.601-2.574c0.079-0.657,0.428-1.539,0.455-1.752
						c0.019-0.218,0.391-0.402,0.459-0.471c0.069-0.067,0.345-0.907,0.524-1.1c0.179-0.191,0.816-0.99,0.832-1.171
						c0.017-0.179,0.114-0.634,0.22-1.018c0,0,0,0-0.005-0.446c0.005-0.714,0.005-0.714,0.005-0.714
						c-0.203-0.553-0.822-1.242-0.979-1.093c-0.161,0.152-0.878-0.486-1.24-0.622c-0.367-0.131-1.276-0.243-1.51-0.243
						c-0.23,0-1.03-0.646-1.388-0.758c-0.354-0.108-1.264-0.279-1.434-0.384c-0.164-0.106-0.386-1.441-1.124-1.876
						c-0.735-0.438-2.017-1.453-2.165-1.83c-0.138-0.372-1.547-1.157-1.988-1.392c-0.426-0.238-1.093-0.293-1.171-0.209
						c-0.088,0.081-0.63-0.723-0.905-0.952c-0.283-0.223-1.129-0.416-1.166-0.211c-0.042,0.204-0.598,0.098-0.729-0.078
						c-0.13-0.17-0.565,0.069-0.772,0.14c-0.201,0.062-0.904,1.116-1.222,1.371c-0.325,0.25-0.711-0.235-0.923-0.329
						c-0.211-0.089-1.02,0.161-1.245,0.315c-0.215,0.153-0.725-1.119-0.605-1.702c0.114-0.583-0.533-1.75-1.039-1.78
						c-0.495-0.027-0.656-1.249-0.555-1.701c0.101-0.45-0.905-0.732-1.156-0.76c-0.259-0.037-0.883,0.602-0.994,0.904
						c-0.105,0.306-2.388-0.413-2.112-1.764c0.262-1.346,1.346-2.742,1.612-2.907c0.272-0.16,1.737-0.243,2.063-0.061
						c0.325,0.185,0.616-0.002,0.671-0.086c0.054-0.082,1.249,0.015,1.611,0.159c0.354,0.143,0.867,1.502,1.235,1.667
						c0.372,0.172,0.505-0.877,0.565-1.132c0.061-0.255-0.18-0.9-0.271-1.082c-0.092-0.182,0.596-1.833,1.156-2.113
						c0.552-0.283,1.147-1.202,1.103-1.364c-0.051-0.159,0.446-0.287,0.579-0.358c0.133-0.066-0.019-1.4,0.198-1.692
						c0.225-0.287,1.271-0.896,1.603-1.035c0.33-0.139,0.582-0.981,0.463-1.128c-0.119-0.152,0.859-0.972,1.369-1.13
						c0.511-0.154,0.946,0.29,0.822,0.355c0.101-0.054,0.799-0.413,1.103-0.603c0.349-0.23,0.004-0.854-0.225-1.041
						c-0.217-0.18-0.088-0.903,0.183-0.969c0.271-0.067,0.51-0.691,0.437-0.826c-0.074-0.141,1.121,0.107,1.57-0.226
						c0.45-0.331,0.133,0.797-0.201,1.251c-0.327,0.453,0.243,0.882,0.458,0.797c0.212-0.09,0.441,0.238,0.483,0.367
						c0.045,0.126,0.5-0.133,0.804-0.004c0.299,0.131,0.477-0.406,0.5-0.647c0.023-0.25-0.717-0.76-0.83-1.057
						c-0.121-0.293-0.167-2.014-0.185-2.369c-0.019-0.352-0.495-0.923-0.653-0.822c-0.151,0.099-0.468-0.917-0.715-1.135
						c-0.253-0.221-0.304-0.707-0.299-0.87c0.014-0.165-0.841-1.048-1.052-1.454c-0.203-0.409-0.492-0.326-0.51-0.14
						c-0.024,0.188-0.616,0.214-0.863,0.19c-0.245-0.023-0.446-0.953-0.446-1.304c0-0.352-1.103-0.414-1.285-0.698
						c-0.18-0.283-0.901-0.149-1.016-0.345c-0.115-0.195-0.753-0.376-0.877-0.305c-0.13,0.074-0.064,2.602-0.193,3.284
						c-0.119,0.679-0.703,1.278-0.923,1.261c-0.206-0.014-0.082,0.488,0.063,0.44c0.153-0.041-0.413,0.746-0.491,1.263
						c-0.072,0.517-0.601-0.022-0.688-0.491c-0.092-0.469-0.61-1.105-0.708-0.942c-0.101,0.157-0.458-0.192-0.614-0.094
						c-0.156,0.102-1.145-0.562-1.538-0.779c-0.396-0.206-0.621-1.409-0.847-1.518c-0.232-0.107-0.036-0.248-0.05-0.434
						c-0.005-0.179,0.771-0.879,1.01-1.156c0.23-0.282,1.084-1.37,1.425-1.605c0.339-0.236,0.601-0.861,0.546-0.98
						c-0.059-0.111,1.448-0.575,1.851-0.715c0.409-0.138,0.764-1.258,0.819-1.58c0.053-0.322-0.259-0.93-0.441-1.013
						c-0.193-0.078,0.563-0.106,0.816,0.018c0.254,0.122,1.029-0.227,1.336-0.066c0.304,0.158,0.925,0.521,1.375,0.801
						c0,0,0,0-0.098,0.822c-0.178,1.396-0.178,1.396-0.178,1.396c-1.19,0.482-1.535,1.318-1.118,1.302
						c0.415-0.021,2.312,0.808,2.845,1.185c0.537,0.379,0.706-0.546,0.862-0.856c0.161-0.3,0.111-1.197-0.019-1.374
						c-0.127-0.179,0.621-0.114,0.827,0.083c0.212,0.197,0.46-0.204,0.619-0.275c0.161-0.071,0.24-0.838,0.331-0.993
						c0.084-0.156-0.353-0.312-0.367-0.502c-0.018-0.195-0.868-0.555-1.144-0.686c-0.28-0.134-0.344-0.71-0.206-0.812
						c0.138-0.101-0.098-0.837-0.234-1.082c-0.128-0.241-1.024-0.44-1.317-0.44c-0.299,0-0.603-0.675-0.777-0.776
						c-0.169-0.096-1.313-0.221-1.589-0.138c-0.284,0.081-0.804-0.799-1.28-0.528c-0.474,0.266-0.965-0.317-1.182-0.434
						c-0.22-0.115-1.331,1.065-1.322,1.895c0.009,0.833,0.432,1.633,0.605,1.658c0.175,0.023-0.04,0.771-0.233,0.988
						c-0.192,0.21-0.661-0.226-0.482-0.417c0.171-0.185-0.487-1.056-0.717-1.407c-0.159-0.258-0.738-0.485-1.135-0.639
						c-0.229,0.246-0.455,0.496-0.68,0.746c0.088,0.304,0.193,0.696,0.093,0.994c-0.166,0.505-0.593,0.583-0.619,0.363
						c-0.011-0.097-0.23-0.17-0.488-0.202c-6.246,7.376-10.402,16.52-11.593,26.546c0.249,0.28,0.534,0.611,0.607,0.849
						c0.143,0.446,0.929,0.742,1.079,0.829c0.143,0.09,0.198-0.854,0.088-1.099c-0.101-0.246,0.192-0.393,0.188-0.211
						c-0.009,0.181,0.74,1.008,0.983,1.311c0.248,0.297,0.5,2.237,0.738,2.65c0.235,0.418,2.499,1.279,3.233,1.431
						c0.73,0.153,1.655,0.958,1.801,1.19c0.138,0.231,1.107,0.351,1.319,0.443c0.21,0.094,0.701,0.744,0.913,0.877
						c0.206,0.135,0.372,0.519,0.372,0.622c0,0.103,1.277,0.581,1.589,0.918c0.313,0.337,0.822,0.246,0.923,0.103
						c0.098-0.144,0.35,0.673,0.482,0.951c0.129,0.283,0.16,0.974,0.06,1.084c-0.096,0.106-0.285,1.378-0.5,1.633
						c-0.222,0.255-0.676,2.1-0.573,2.464c0.096,0.365,0.697,1.116,0.96,1.231c0.256,0.112,0.146,0.505-0.056,0.533
						c-0.207,0.025-0.111,1.789,0.371,2.051C865.902,240.166,866.308,240.949,866.238,241.084z M872.305,210.147l0.005-0.002
						C872.291,210.154,872.291,210.157,872.305,210.147z M868.782,188.727c0.616-0.101,1.645-0.269,1.714-0.44
						c0.05-0.14,0.059-0.558-0.056-0.703c0.096,0.004,0.211,0.007,0.299,0.007c0.233,0,0.624-1.263,0.867-1.557
						c0.248-0.298,1.658-0.732,1.999-0.93c0.334-0.204,1.068-0.9,1.349-0.982c0.29-0.083,0.698-0.733,0.635-0.864
						c-0.061-0.128,0.954-0.74,1.346-0.897c0.381-0.164,0.582-0.609,0.437-0.628c-0.093-0.011-2.246,1.099-4.218,2.2
						c-2.25,1.504-4.366,3.188-6.341,5.018C867.423,188.904,868.378,188.794,868.782,188.727z M906.076,251.941
						c0.661-0.383,1.781-2.016,2.149-2.36c0.367-0.345,0.638-1.58,0.716-1.85c0.072-0.271,0.633-0.707,0.845-0.767
						c0.206-0.06,0.877-2.799,1.465-3.394c0.584-0.599,1.271-3.495,1.203-4.538c-0.077-1.038,0.378-3.022,0.51-3.5
						c0.143-0.478,0.878-1.325,1.107-1.499c0.23-0.177,1.645-2.244,2.103-2.981c0.455-0.744,0.887-2.368,0.805-2.751
						c-0.088-0.381-1.074-0.646-1.263-0.457c-0.179,0.188-1.107,0.342-1.406,0.342c-0.298,0-0.978-1.566-1.4-1.893
						c-0.423-0.319-0.804-2.115-1.048-2.455c-0.243-0.34-0.928-1.198-1.134-1.396c-0.215-0.197-0.252-1.15-0.303-1.409
						c-0.042-0.259,0.413,0.169,0.49,0.548c0.084,0.379,1.172,1.911,1.512,2.425c0.336,0.517,1.23,2.155,1.455,2.668
						c0.227,0.513,2.21,0.253,2.853-0.044c0.648-0.3,1.447-0.808,1.479-0.985c0.023-0.176,1.053-0.64,1.338-0.865
						c0.285-0.223,0.537-1.398,0.722-1.585c0.188-0.193-0.148-1.311-0.364-1.646c-0.212-0.331-1.24-0.6-1.446-0.469
						c-0.212,0.133-0.651-0.751-0.813-1.075c-0.156-0.323-0.941-0.721-1.028-0.941c-0.084-0.227,0.215-0.574,0.339-0.649
						c0.124-0.081,1.57,0.926,1.993,1.421c0.413,0.499,0.891,1.415,0.974,1.576c0.073,0.158,1.222,0.241,1.475,0.057
						c0.252-0.188,0.547-0.138,0.647,0.101c0,0,0,0,0.363-0.062c1.253-0.19,1.253-0.19,1.253-0.19
						c0.598,0.632,0.767,1.181,0.754,1.309c-0.014,0.122,0.362,0.637,0.605,0.691c0.243,0.055,0.423,0.866,0.497,1.065
						c0.073,0.202,0.79,1.412,0.936,1.925c0.144,0.509,0.759,1.502,0.905,1.77c0.143,0.266,0.262,1.038,0.262,1.247
						c0,0.211,0.46,0.627,0.745,0.606c0.283-0.017,0.862-1.791,1-2.451c0.129-0.659,0.592-1.203,0.722-1.203
						c0.132,0,0.238-0.37,0.238-0.512c0-0.136,0.727-0.125,0.795-0.303c0.059-0.179,0.275-1.351,0.532-1.529
						c0.262-0.177,1.182-0.774,1.512-0.884c0.317-0.11,1.143,0.592,1.332,0.92c0.184,0.324,0.35,1.16,0.275,1.295
						c-0.068,0.136,0.437,0.856,0.881,0.842c0.437-0.013,0.574,0.55,0.59,0.752c0.018,0.201,0.596,0.785,0.711,1.042
						c0.114,0.262,0.082,0.966,0.005,1.13c-0.079,0.16-0.028,1.085,0.054,1.347c0.088,0.258,1.438,1.61,1.943,2.021
						c0.51,0.408,0.748-0.834,0.486-1.224c-0.256-0.386-1.139-1.288-1.346-1.555c-0.211-0.271-0.243-1.352-0.164-1.651
						c0.074-0.306,0.771,0.165,1.061,0.383c0.288,0.221,0.671,0.706,0.675,0.87c0.015,0.159,1.823-0.84,1.888-1.926
						c0.065-1.084,0.666-2.308,0.727-2.593c0.059-0.29-0.18-0.68-0.331-0.693c-0.155-0.015,0.271-0.828,0.775-0.816
						c0.511,0.019,1.737-1.327,2.021-1.857c0.29-0.533,0.873-0.972,0.941-1.038c0.068-0.065,0.474-1.325,0.547-1.847
						c0.069-0.518-0.299-1.334-0.344-1.605c-0.042-0.266-0.479-0.886-0.598-1.084c-0.105-0.192-0.216-0.923-0.147-1.061
						c0.065-0.133,0.528-0.278,0.575-0.399c0.051-0.124,0.574-0.675,0.537-0.915c-0.042-0.245,0.32,0.311,0.564,0.513
						c0.239,0.2,0.501,1.495,0.8,1.64c0.294,0.143,1.497-1.374,1.346-2.352c-0.147-0.978,0.353-2.228,0.644-2.34
						c0.22-0.085,0.785-0.875,1.171-1.444c-2.651-7.528-7.041-14.254-12.705-19.715c-0.063,0.006-0.132,0.009-0.192-0.004
						c-0.439-0.094-0.439-0.094-0.439-0.094c-0.745-0.154-1.172-0.932-1.048-1.117c0.041-0.055,0.032-0.183-0.005-0.34
						c-0.409-0.367-0.83-0.726-1.264-1.079c-0.349-0.009-0.716,0-0.931-0.009c-0.441-0.016-1.406-0.326-1.576-0.496
						c-0.175-0.17-0.753,0.149-0.785,0.464c-0.037,0.317-1.052,0.461-1.145,0.702c-0.101,0.239-0.619,0.257-0.72,0.12
						c-0.098-0.134-1.039,0.325-1.502,0.394c-0.469,0.062-1.332,0.437-1.544,0.526c-0.206,0.092-0.698,0.567-0.78,0.763
						c-0.079,0.197-0.676,0.527-0.867,0.604c-0.193,0.076-0.158,0.932,0.09,1.051c0.249,0.119-0.458-0.103-0.767-0.262
						c-0.32-0.152-0.666,0.367-0.757,0.546c-0.103,0.18-0.386-0.107-0.377-0.36c0.01-0.259-0.772-0.466-0.873-0.262
						c-0.105,0.204-0.647-0.067-0.867-0.184c-0.23-0.118-1.198,0.882-1.558,1.24c-0.357,0.355-2.081,0.633-2.401,0.5
						c-0.327-0.133-0.64,0.749-0.367,0.809c0.275,0.053-0.698-0.043-1.232,0.004c-0.536,0.053-2.089,0.666-2.456,0.937
						c-0.376,0.273-0.675-0.06-0.675-0.269s-0.589-0.402-0.767-0.461c-0.175-0.061-0.523,1.146-0.827,1.375
						c-0.308,0.239-0.68-0.939-1.406-1.132c-0.726-0.193-1.859-0.881-2.186-0.965c-0.316-0.084-0.965-0.751-1.149-0.944
						c-0.183-0.192-1.11-0.353-1.404-0.353c-0.299,0-1.259,0.543-1.516,0.755c-0.267,0.214-0.652,0.173-0.781,0.249
						c-0.123,0.076-1.212,1.127-1.63,1.453c-0.423,0.329-1.158,1.741-1.396,2.078c-0.243,0.336-0.589,0.398-0.729,0.409
						c-0.143,0.005-0.259,0.384-0.259,0.52c0,0.14-1.248,0.779-1.377,1.339c-0.133,0.556,0.119,1.83,0.119,2.285
						c0,0.453,0.47,1.353,0.813,1.366c0.344,0.017,0.164,0.77,0.074,0.981c-0.093,0.211,0.215,0.443,0.206,0.623
						c-0.005,0.181-0.873,0.431-1.14,0.537c-0.27,0.094-0.703,0.691-0.762,0.912c-0.047,0.195-0.883,0.333-1.152,0.592
						c0.063-0.188,0.161-0.445,0.233-0.592c0.16-0.296-0.06-0.818-0.188-0.923c-0.133-0.108-0.198-1.587-0.404-1.902
						c-0.212-0.316-0.735-0.854-0.862-0.958c-0.135-0.103,0.087-0.493,0.164-0.66c0.074-0.163-0.698-0.256-0.913-0.135
						c-0.211,0.119-0.327,1.585-0.414,1.984c-0.087,0.396,0.381,1.013,0.51,1.042c0.124,0.03,0.093,0.749-0.18,0.772
						c-0.27,0.027-0.519,1.077-0.381,1.318s-0.192,0.711-0.354,0.82c-0.159,0.105,1.038,0.046,1.594,0.03
						c0.547-0.014,0.979,0.229,0.923,0.27c-0.059,0.049-1.056,0.193-1.229,0.425c-0.18,0.232-0.854,0.677-0.983,0.857
						c-0.133,0.179,0.22,0.574,0.505,0.555c0.29-0.016,0.61,0.974,0.836,1.155c0.222,0.184,0.138,0.696,0.047,0.838
						c-0.105,0.138-1.446-0.094-1.957,0.029c-0.515,0.122-1.157,1.188-1.199,1.587c-0.046,0.402,0.084,1.555,0.152,1.874
						c0.063,0.317,1.129,0.517,1.346,0.673c0.22,0.154,1.24,0.004,1.46,0.101c0.201,0.102,0.896-1.02,1.034-1.539
						c0.132-0.521,1.227-1.474,1.451-1.827c0.225-0.352,1.399-0.313,1.689-0.499c0.289-0.181,0.128,0.879,0.267,1.461
						c0.138,0.584,1.258,0.512,1.093-0.037c-0.161-0.544,0.114-0.785,0.161-0.585c0.051,0.193,1.124,0.629,1.331,0.937
						c0.203,0.31,0.147,0.964-0.096,0.955c-0.238-0.009-0.249,0.719,0.008,0.797c0.249,0.078,0.59-0.82,0.864-0.948
						c0.271-0.136,0.492-0.694,0.363-0.735c-0.119-0.043,0.234-0.544,0.386-0.379c0.156,0.166-0.574-1.085-1.034-1.543
						c-0.463-0.455-0.138-0.252,0.722,0.45c0,0,0,0,0.593,0.82c0.119,0.147,0.267,0.595,0.372,0.76
						c0.138,0.242,0.138,0.242,0.138,0.242c0.114,0.287,0.22,1.07,0.22,1.284c0,0.209,0.465,0.626,0.745,0.608
						c0.283-0.021,0.5,0.131,0.437,0.143c-0.056,0.009,0.192,0.553,0.468,0.564c0.28,0.012,0.404-0.701,0.119-0.719
						c-0.28-0.016-0.238-1.047-0.275-1.493c-0.031-0.45,0.207-0.817,0.303-0.817c0.097,0-0.014,0.923,0,1.134
						c0,0.211,0.121,0.629,0.248,0.93c0,0,0,0,0.294,0.216c0.652,0.494,0.652,0.494,0.652,0.494c0.934-0.271,2.187-0.062,2.14,0.126
						c-0.054,0.188,0.685,0.232,0.735-0.074c0.042-0.299,0.073,0.012,0.073,0.222c0,0.208-0.61,1.027-0.711,1.408
						c-0.101,0.376-2.256,0.12-3.184,0.05c-0.928-0.069-2.296,0.242-2.401,0.515c-0.105,0.272-1.552-0.627-2.213-0.9
						c-0.667-0.278-1.19-1.274-1.324-1.404c-0.138-0.132,0.116-0.452,0.05-0.646c-0.063-0.201-1.578-0.242-2.015-0.078
						c-0.446,0.156-2.716,0.394-3.252,0.626c-0.537,0.238-1.347-0.014-1.598-0.058c-0.254-0.044-0.854,0.685-1.158,0.818
						c-0.307,0.133-0.693,1.167-0.864,2.305c0,0,0,0-0.407,0.791c-0.272,0.508-0.272,0.508-0.272,0.508
						c-0.748,0.563-1.579,2.437-1.822,2.813c-0.243,0.376-0.441,3.077-0.441,3.986c0,0.907,0.809,2.829,1.034,3.359
						c0.229,0.533,1.621,1.704,2.084,1.986c0.465,0.276,1.975,0.313,2.472,0.313c0.491-0.003,1.061-0.467,1.248-1.031
						c0,0,0,0,0.727,0.071c0.336,0.036,0.336,0.036,0.336,0.036c0.019,0.4,1.088,0.716,1.35,0.856
						c0.262,0.143,0.97,0.037,1.176-0.025c0.217-0.057,0.45,1.805,0.294,2.345c-0.146,0.54,0.378,2.429,0.528,3.001
						c0.156,0.57,0.813,2.126,0.881,2.684c0.061,0.558-0.389,2.417-0.463,3.066c-0.074,0.654,0.827,2.473,1.065,3.1
						c0.23,0.624,0.423,1.97,0.423,2.283c0,0.312,0.981,2.197,1.203,2.968C902.953,252.132,905.414,252.322,906.076,251.941z
						 M948.586,228.884c0.064,0.137,0.684-0.347,1.056-0.402c0.372-0.058,0.605-1.041,0.317-1.112
						c-0.294-0.078-0.666-0.832-0.873-0.923c-0.211-0.094-0.619,0.324-0.603,0.622c0.016,0.299-0.68,0.418-0.807,0.666
						c-0.129,0.249-0.119,0.43,0.021,0.402C947.838,228.115,948.521,228.746,948.586,228.884z M947.822,234.216
						c0.19-0.067-0.019-1.038-0.402-1.119c-0.391-0.078-1.457,1.28-1.255,2.063c0.206,0.776,0.428,0.73,0.542,0.564
						c0.105-0.163,0.745,0.106,0.933,0.17c0.183,0.057,0.183-0.129,0-0.416C947.452,235.188,947.64,234.285,947.822,234.216z
						 M945.715,233.27c0.042-0.346,0.111-1.428,0.175-1.646c0.056-0.216-0.601-0.835-0.928-0.948
						c-0.321-0.111-1.364,2.11-2.103,2.503c-0.754,0.397-1.021,1.748-0.828,2.06c0.203,0.312,1.759,0.48,2.031,0.714
						c0.27,0.234,0.573-0.04,0.734-0.076c0.165-0.039,0.114-0.145,0.056-0.184c-0.065-0.037,0.542-0.668,0.629-1.071
						C945.564,234.228,945.67,233.615,945.715,233.27z M941.481,236.97c-0.589-0.216-1.272,0.121-1.324,0.344
						c-0.059,0.223,2.252,0.581,3.014,0.788c0.757,0.202,1.24,0.269,1.065,0.142C944.063,238.115,942.063,237.188,941.481,236.97z
						 M946.161,222.19c0.183-0.251-0.258-1.441-0.483-1.169c-0.22,0.266-0.059,0.958,0.011,1.203
						C945.757,222.461,945.977,222.447,946.161,222.19z M947.553,224.744c0.132-0.308-0.166-0.646-0.666-0.749
						s-0.429,1.375-0.207,1.565C946.896,225.745,947.415,225.054,947.553,224.744z M950.146,233.901
						c0.598,0.414,1.925,0.223,1.971-0.572C951.529,232.948,950.092,233.013,950.146,233.901z M949.826,215.778
						c-0.248,0.17-0.381,0.607-0.304,0.783c-0.037-0.001-0.063-0.004-0.105-0.004c-0.198,0-0.217,0.776-0.005,0.907
						c0.203,0.134,0.708-0.604,0.975-0.778c0.257-0.177,0.785-0.282,0.867-0.228c0.077,0.055,0.542-0.082,1.029-0.303
						c0.087-0.041,0.188-0.168,0.288-0.347c-0.114-0.567-0.251-1.124-0.389-1.684c-0.249,0.182-0.529,0.377-0.658,0.49
						C951.26,214.851,950.146,215.56,949.826,215.778z M936.193,231.369c0,0,0.005,0,0.011,0.005
						C936.098,231.294,936.085,231.291,936.193,231.369z M939.91,234.778c-0.216-0.484-0.933-1.292-1.589-1.807c0,0,0,0-0.248-0.404
						c-0.272-0.445-0.272-0.445-0.272-0.445c-0.246-0.487-0.981-0.863-1.047-1.009c-0.063-0.142-0.299,0.423-0.55,0.26
						c0.129,0.089,0.404,0.282,0.793,0.555c0.695,0.489,2.031,3.796,2.335,4.028C939.63,236.189,940.125,235.258,939.91,234.778z
						 M929.264,229.433c-0.188,0.377,0.988,1.169,1.08,0.988c0.096-0.184-0.152-1.096-0.359-1.302
						C929.778,228.918,929.453,229.061,929.264,229.433z M913.681,247.104c0.051,0.395,0.859,0.705,1.093,0.641
						c0.239-0.065,0.891-1.254,0.983-1.594c0.092-0.345,0.166-1.08,0.166-1.256c0-0.17,0.108-0.567,0.201-0.618
						c0.087-0.044,0.238-0.45,0.325-0.893c0.093-0.453-0.486-2.54-0.5-2.903c-0.014-0.369-0.437,0.188-0.542,0.561
						c-0.114,0.367-1.166,1.125-1.401,1.439c-0.232,0.313-0.489,1.38-0.399,1.564c0.088,0.184-0.09,0.91-0.201,1.112
						C913.305,245.36,913.639,246.708,913.681,247.104z M875.671,261.541c0.229,0,0.46,0,0.703,0
						C876.503,260.788,875.626,260.912,875.671,261.541z M894.561,182.956c-0.293,0.037-1.065-0.116-1.198-0.255
						c-0.129-0.138-1.281-0.262-1.617-0.123c-0.331,0.135-0.104-0.8,0.359-0.9c0.463-0.104,0.068-0.749-0.423-0.749
						c-0.492-0.005-1.709-0.18-1.994-0.115c-0.283,0.06-0.844-0.198-1.047-0.228c-0.201-0.028-1.661,0.43-2.356,0.395
						c-0.692-0.027-2.383,0.039-2.75,0.143c-0.378,0.094-0.643,0.804-0.587,1.052c0.054,0.254-1.642,0.248-2.174,0.257
						c-0.537,0.007-3.376,0.604-4.119,1.006c-0.743,0.399-1.322,1.428-1.076,1.449c0.245,0.019-0.412,0.602-0.812,0.739
						c-0.399,0.133-1.351,0.193-1.579,0.414c-0.217,0.221,0.243,0.374,0.33,0.523c0.088,0.145,0.353-0.128,0.606,0.012
						c0.248,0.14,1.079,0.207,1.295,0.289c0.225,0.086-0.698,0.258-1.134,0.29c-0.434,0.03-0.336,0.871,0.018,0.985
						c0.353,0.12,1.263,0.242,1.359,0.096c0.091-0.146,1.079,0.156,1.524,0.209c0.446,0.049,0.79,1.149,0.924,1.387
						c0.138,0.236,0.17,1.075,0.133,1.319c-0.032,0.241,0.785,0.684,0.937,0.53c0.143-0.154,0.101,0.378-0.225,0.351
						c-0.326-0.029-0.114,0.903,0.293,1.036c0.399,0.133,0.125,0.705-0.105,0.882c-0.238,0.169-0.109,0.718-0.349,0.919
						c-0.233,0.192,0.851,2.043,0.841,2.999c-0.006,0.951,0.597,1.727,0.827,1.727c0.233,0,1.028,0.193,1.134,0.398
						c0.106,0.204,0.487-0.14,0.638-0.299c0.148-0.153,0.479-0.613,0.717-1.015c0.248-0.406,0.79-2.315,0.864-2.519
						c0.074-0.208,0.983-0.078,1.189-0.182c0.207-0.105,0.804-0.569,0.974-0.707c0.169-0.139,1.47-0.678,1.827-0.931
						c0.35-0.25,0.946-1.334,1.217-1.566c0.277-0.234-0.141-0.165-0.486-0.388c-0.345-0.223-0.193-0.493-0.091-0.599
						c0.096-0.105,1.147,0.172,1.505,0.307c0.364,0.143,1.047-0.346,0.785-0.54c-0.265-0.188-0.124-0.181,0-0.101
						c0.13,0.076,0.262-0.627,0.125-0.76c-0.138-0.136,1.061-0.997,0.851-1.812c-0.208-0.813,0.33-1.647,0.646-1.659
						c0.327-0.009,0.23-0.918-0.155-1.003c-0.382-0.084-0.022-0.167,0.124-0.298c0.138-0.126,0.327-0.942,0.239-1.096
						c-0.083-0.161,0.593-0.333,0.707-0.519c0.119-0.185,0.891-0.547,1.171-0.609C894.709,183.639,894.859,182.927,894.561,182.956z
						 M901.279,183.623c-0.367-0.124-1.11,0.278-1.018,0.502c0.095,0.23-0.608-0.29-1.095-0.043c-0.495,0.255-0.629,1.1-0.402,1.212
						c0.225,0.108,0.389,0.781,0.394,0.912c0.009,0.133,0.955,0.037,1.193-0.159c0.245-0.195,0.212,0.682-0.026,0.918
						c-0.238,0.239,0.087,0.714,0.349,0.754c0.267,0.036,0.624,0.649,0.896,0.643c0.267-0.007,0.729-1.031,0.836-1.417
						c0.105-0.381,1.005-0.081,1.419,0.042c0.413,0.119,0.564-1.413,0.114-1.647c-0.441-0.227-1.002-0.112-1.185-0.29
						c-0.188-0.176-0.505-0.337-0.712-0.369C901.837,184.651,901.644,183.744,901.279,183.623z M904.881,184.355
						c0.73,0.101,1.544-0.487,1.722-0.657c0.18-0.166-2.016-0.604-2.846-0.631c-0.838-0.025-1.512,0.087-1.502,0.25
						C902.273,183.478,904.151,184.252,904.881,184.355z M891.607,203.737c-0.193-0.078-0.299,0.631-0.252,0.9
						c0.046,0.269,0.712,0.245,1,0.197c0.285-0.046,0.507-0.276,0.497-0.51c-0.019-0.229-0.423-1.288-0.584-1.288
						C892.109,203.036,891.801,203.812,891.607,203.737z M893.762,195.495c-0.147-0.262-1.29-0.227-1.57-0.246
						c-0.275-0.016-1.126-0.294-1.29-0.473c-0.161-0.179-0.286,0.691-0.548,0.804c-0.256,0.112,0.13,0.278,0.24,0.186
						c0.101-0.095-0.01,0.447-0.124,0.634c-0.121,0.184,0.757,0.314,0.857,0.595c0.098,0.283,0.455,0.464,0.804,0.411
						c0.346-0.058,1.034-0.409,1.273-0.432C893.648,196.948,893.913,195.754,893.762,195.495z M917.731,189.056
						c0.392-0.386,2.002-0.91,2.191-1.312c0.175-0.397-0.12-0.726-0.28-0.726c-0.161,0-0.367,0.202-0.4,0.263
						c-0.041,0.067-1.892,0.497-2.457,0.765c-0.574,0.269-1.23,0.687-1.47,0.926c-0.238,0.236-0.63,2.044-0.771,2.248
						c-0.14,0.202,0.614,0.94,0.944,1.146c0.341,0.2,0.796,0.094,0.929,0.056c0.124-0.04-0.175-1.302-0.345-1.744
						C915.895,190.243,917.341,189.449,917.731,189.056z M915.748,184.348c0.611,0.592,0.944-0.267,1.611-0.182
						C917.351,182.956,915.688,183.373,915.748,184.348z M927.592,184.573c-0.019,0.221,1.687,0.402,2.187,0.314
						c0.497-0.084-0.105-0.85-0.836-0.806C928.221,184.133,927.61,184.351,927.592,184.573z M865.897,197.017
						c-0.18,0.164-0.023,0.988,0.322,1.011c0.339,0.022,0.881-1.243,1.299-0.987c0.418,0.255,0.703,0.353,0.635,0.218
						c-0.074-0.131-1.259-0.645-1.41-0.742C866.596,196.43,866.082,196.856,865.897,197.017z M870.256,224.886
						c0,0.135,0.74,0.117,0.864-0.108c0.119-0.222,0.056-0.406-0.143-0.406C870.776,224.372,870.256,224.744,870.256,224.886z
						 M866.95,223.681c0.357-0.066,0.188,0.5,0.27,0.702c0.093,0.205,0.941,0.367,1.113,0.505c0.164,0.136,0.61-0.257,0.949-0.215
						c0.341,0.043-0.11-1.16-0.685-1.128c-0.568,0.04-1.023-0.509-1.156-0.576c-0.143-0.06-0.8-0.457-0.988-0.606
						c-0.188-0.152-1.645-0.278-2.14-0.278c-0.496,0-1.042,0.499-1.116,0.659c-0.078,0.166,0.786,0.276,1.029,0.145
						c0.248-0.126,1.401,0.145,1.635,0.418C866.1,223.577,866.591,223.747,866.95,223.681z M865.393,224.886
						c0,0.135,0.748,0.05,0.934,0.054c0.183,0.003,0.174-0.119-0.019-0.268C866.123,224.525,865.393,224.744,865.393,224.886z
						 M865.925,221.081c-0.196-0.076-0.353,0.228-0.353,0.369c0,0.14,0.109,0.26,0.238,0.26
						C865.943,221.71,866.117,221.159,865.925,221.081z M867.497,221.203c-0.065-0.145-0.386-0.26-0.483-0.26
						c-0.096,0-0.164,0.246-0.151,0.542C866.881,221.783,867.561,221.34,867.497,221.203z M868.626,222.918
						c0.303-0.145,0.339-0.503,0.165-0.482c-0.184,0.016-0.514-0.515-0.712-0.593c-0.192-0.075-0.354,0.321-0.354,0.494
						c0,0.175,0.11,0.294,0.243,0.257C868.103,222.564,868.322,223.055,868.626,222.918z M952.402,234.519
						c-0.156,0.081-0.915,0.168-1.011,0.022c-0.105-0.146-0.253,0.301-0.412,0.375c-0.161,0.068-0.074,0.464,0.164,0.339
						c0.169-0.081,0.886,0.31,1.47,0.67c0.114-0.567,0.217-1.139,0.313-1.717C952.714,234.319,952.499,234.469,952.402,234.519z"/>
					<defs>
						<filter id="Adobe_OpacityMaskFilter" filterUnits="userSpaceOnUse" x="863.147" y="175.755" width="77.475" height="64.14">
							
								<feColorMatrix  type="matrix" values="-1 0 0 0 1  0 -1 0 0 1  0 0 -1 0 1  0 0 0 1 0" color-interpolation-filters="sRGB" result="source"/>
							<feFlood  style="flood-color:white;flood-opacity:1" result="back"/>
							<feBlend  in="source" in2="back" mode="normal"/>
						</filter>
					</defs>
					<mask maskUnits="userSpaceOnUse" x="863.147" y="175.755" width="77.475" height="64.14" id="SVGID_3_">
						<g filter="url(#Adobe_OpacityMaskFilter)">
							
								<radialGradient id="SVGID_4_" cx="989.8955" cy="324.6221" r="152.0876" gradientTransform="matrix(0.4509 0 0 0.4441 454.9802 39.3298)" gradientUnits="userSpaceOnUse">
								<stop  offset="0" style="stop-color:#000000"/>
								<stop  offset="0.1042" style="stop-color:#272727"/>
								<stop  offset="0.2914" style="stop-color:#686868"/>
								<stop  offset="0.47" style="stop-color:#9E9E9E"/>
								<stop  offset="0.6349" style="stop-color:#C8C8C8"/>
								<stop  offset="0.7833" style="stop-color:#E6E6E6"/>
								<stop  offset="0.91" style="stop-color:#F8F8F8"/>
								<stop  offset="1" style="stop-color:#FFFFFF"/>
							</radialGradient>
							<rect x="856.41" y="168.011" fill="url(#SVGID_4_)" width="95.441" height="79.627"/>
						</g>
					</mask>
					<path opacity="0.5" mask="url(#SVGID_3_)" fill="#E1EBF4" d="M940.622,207.826c0,17.712-17.343,32.068-38.734,32.068
						c-21.399,0-38.74-14.356-38.74-32.068c0-17.715,17.341-32.071,38.74-32.071C923.279,175.755,940.622,190.111,940.622,207.826z"
						/>
				</g>
				<path opacity="0.6" fill="#FFFFFF" d="M915.146,176.639c-0.849-0.333-1.727-0.604-2.636-0.801
					c-7.986-1.757-16.497,2.275-23.804,10.212c-7.197,7.819-13.25,19.459-16.452,33.068c-0.005,0.018-0.01,0.036-0.013,0.057
					c-3.192,13.604-2.931,26.631,0.068,36.692c2.745,9.217,7.803,15.975,14.633,18.499c-6.65-2.624-11.579-9.306-14.275-18.364
					c-3.004-10.063-3.261-23.087-0.073-36.693c0.005-0.019,0.01-0.037,0.015-0.055c3.2-13.608,9.255-25.248,16.455-33.068
					c7.303-7.936,15.817-11.969,23.805-10.212C913.648,176.144,914.405,176.368,915.146,176.639z"/>
				<path opacity="0.6" fill="#FFFFFF" d="M852.087,239.495c0.029,0.898,0.13,1.794,0.304,2.687
					c1.558,7.886,8.694,13.935,18.968,17.34c10.122,3.353,23.326,4.151,37.22,1.603c0.023-0.004,0.041-0.007,0.06-0.009
					c13.888-2.56,25.862-7.991,33.991-14.704c7.449-6.15,11.698-13.393,11.312-20.541c0.221,7.027-4.009,14.128-11.325,20.169
					c-8.133,6.71-20.107,12.141-33.996,14.699c-0.018,0.005-0.036,0.008-0.055,0.012c-13.893,2.552-27.103,1.752-37.22-1.605
					c-10.273-3.406-17.411-9.454-18.967-17.338C852.22,241.041,852.129,240.269,852.087,239.495z"/>
				<path opacity="0.6" fill="#FFFFFF" d="M870.854,185.501c-0.822,0.399-1.608,0.861-2.365,1.394
					c-6.654,4.687-9.286,13.623-8.162,24.275c1.111,10.498,5.875,22.702,14.031,34.129c0.01,0.017,0.018,0.033,0.033,0.048
					c8.155,11.417,18.177,19.916,27.785,24.429c8.805,4.134,17.287,4.935,23.753,1.607c-6.42,3.131-14.76,2.285-23.409-1.779
					c-9.611-4.51-19.633-13.012-27.79-24.43c-0.014-0.013-0.023-0.029-0.032-0.045c-8.157-11.424-12.919-23.632-14.03-34.126
					c-1.126-10.658,1.506-19.59,8.161-24.277C869.476,186.268,870.15,185.861,870.854,185.501z"/>
				<g opacity="0.5">
					<g>
						<path fill="#FFFFFF" d="M874.288,218.19c-3.168,0-5.744-2.54-5.744-5.663c0-3.122,2.576-5.661,5.744-5.661
							c3.175,0,5.751,2.54,5.751,5.661C880.039,215.65,877.463,218.19,874.288,218.19z M874.288,206.919
							c-3.137,0-5.69,2.517-5.69,5.608c0,3.091,2.554,5.609,5.69,5.609c3.142,0,5.695-2.519,5.695-5.609
							C879.983,209.436,877.43,206.919,874.288,206.919z"/>
					</g>
					<g>
						<path fill="#FFFFFF" d="M874.288,221.476c-5.011,0-9.083-4.014-9.083-8.948c0-4.936,4.072-8.952,9.083-8.952
							s9.09,4.016,9.09,8.952C883.378,217.461,879.299,221.476,874.288,221.476z M874.288,203.663c-4.959,0-8.996,3.977-8.996,8.865
							c0,4.888,4.037,8.866,8.996,8.866c4.966,0,9.003-3.978,9.003-8.866C883.291,207.64,879.254,203.663,874.288,203.663z"/>
					</g>
					<g>
						<path fill="#FFFFFF" d="M874.288,215.326c-1.565,0-2.838-1.256-2.838-2.799c0-1.544,1.272-2.8,2.838-2.8
							c1.57,0,2.845,1.256,2.845,2.8C877.133,214.07,875.858,215.326,874.288,215.326z M874.288,209.773
							c-1.537,0-2.796,1.235-2.796,2.754c0,1.52,1.259,2.755,2.796,2.755c1.544,0,2.798-1.235,2.798-2.755
							C877.086,211.008,875.832,209.773,874.288,209.773z"/>
					</g>
				</g>
				<g opacity="0.5">
					<g>
						<path fill="#FFFFFF" d="M936.595,225.405c-2.885,0-5.232-2.31-5.232-5.151c0-2.838,2.348-5.148,5.232-5.148
							c2.883,0,5.226,2.31,5.226,5.148C941.82,223.095,939.478,225.405,936.595,225.405z M936.595,215.154
							c-2.857,0-5.177,2.289-5.177,5.1c0,2.813,2.319,5.103,5.177,5.103c2.856,0,5.181-2.29,5.181-5.103
							C941.775,217.443,939.451,215.154,936.595,215.154z"/>
					</g>
					<g>
						<path fill="#FFFFFF" d="M936.595,227.878c-4.268,0-7.739-3.419-7.739-7.624c0-4.202,3.472-7.621,7.739-7.621
							c4.266,0,7.737,3.419,7.737,7.621C944.332,224.459,940.86,227.878,936.595,227.878z M936.595,212.706
							c-4.226,0-7.665,3.387-7.665,7.548c0,4.163,3.439,7.55,7.665,7.55s7.665-3.387,7.665-7.55
							C944.26,216.093,940.82,212.706,936.595,212.706z"/>
					</g>
					<g>
						<path fill="#FFFFFF" d="M936.595,223.345c-1.731,0-3.138-1.387-3.138-3.091c0-1.702,1.406-3.088,3.138-3.088
							c1.73,0,3.137,1.387,3.137,3.088C939.731,221.958,938.325,223.345,936.595,223.345z M936.595,217.214
							c-1.7,0-3.088,1.364-3.088,3.04c0,1.679,1.388,3.043,3.088,3.043c1.703,0,3.086-1.364,3.086-3.043
							C939.681,218.578,938.298,217.214,936.595,217.214z"/>
					</g>
				</g>
				<g opacity="0.5">
					<g>
						<path fill="#FFFFFF" d="M929.241,257.89c-2.205,0-4-1.766-4-3.936c0-2.17,1.795-3.936,4-3.936c2.2,0,3.996,1.766,3.996,3.936
							C933.237,256.124,931.441,257.89,929.241,257.89z M929.241,250.056c-2.187,0-3.958,1.748-3.958,3.897s1.771,3.896,3.958,3.896
							c2.182,0,3.959-1.747,3.959-3.896S931.423,250.056,929.241,250.056z"/>
					</g>
					<g>
						<path fill="#FFFFFF" d="M929.241,256.316c-1.322,0-2.397-1.061-2.397-2.363s1.075-2.363,2.397-2.363
							c1.317,0,2.396,1.061,2.396,2.363S930.559,256.316,929.241,256.316z M929.241,251.629c-1.306,0-2.36,1.043-2.36,2.324
							s1.055,2.324,2.36,2.324c1.299,0,2.361-1.043,2.361-2.324S930.54,251.629,929.241,251.629z"/>
					</g>
				</g>
				<g opacity="0.5">
					<g>
						<path fill="#FFFFFF" d="M890.855,268.143c-3.082,0-5.6-2.473-5.6-5.513c0-3.042,2.518-5.516,5.6-5.516
							c3.09,0,5.604,2.474,5.604,5.516C896.459,265.67,893.945,268.143,890.855,268.143z M890.855,257.166
							c-3.056,0-5.544,2.45-5.544,5.463c0,3.01,2.488,5.46,5.544,5.46c3.058,0,5.548-2.45,5.548-5.46
							C896.403,259.616,893.913,257.166,890.855,257.166z"/>
					</g>
					<g>
						<path fill="#FFFFFF" d="M890.855,265.936c-1.851,0-3.357-1.484-3.357-3.307c0-1.826,1.507-3.312,3.357-3.312
							c1.854,0,3.361,1.486,3.361,3.312C894.217,264.452,892.71,265.936,890.855,265.936z M890.855,259.371
							c-1.818,0-3.303,1.46-3.303,3.259c0,1.793,1.484,3.253,3.303,3.253c1.827,0,3.311-1.46,3.311-3.253
							C894.166,260.831,892.683,259.371,890.855,259.371z"/>
					</g>
				</g>
				<path opacity="0.6" fill="#FFFFFF" d="M932.267,186.599c-3.921-11.057-9.956-17.542-17.002-18.268
					c-5.167-0.531-10.272,1.479-15.175,6.871c0.193-0.009,0.392-0.021,0.594-0.028c4.726-5.084,9.603-6.933,14.541-6.423
					c6.865,0.705,12.776,7.093,16.635,17.985c3.958,11.146,5.244,25.586,3.623,40.659c-1.616,15.073-5.942,28.939-12.18,39.035
					c-6.095,9.87-13.231,14.912-20.099,14.205c-3.191-0.328-6.2-1.92-8.896-4.637c-0.267-0.034-0.496-0.068-0.689-0.101
					c2.861,3.029,6.095,4.802,9.54,5.155c0.437,0.046,0.876,0.067,1.322,0.067c6.627,0,13.388-5.082,19.188-14.472
					c6.265-10.148,10.614-24.073,12.24-39.208C937.536,212.307,936.246,197.805,932.267,186.599z"/>
				<path opacity="0.6" fill="#FFFFFF" d="M943.211,178.334c-5.35-5.27-14.916-5.821-26.936-1.548
					c-0.17,0.062-0.345,0.128-0.519,0.193c0.248,0.069,0.5,0.143,0.739,0.211c11.813-4.187,21.181-3.667,26.395,1.465
					c5.217,5.139,5.735,14.394,1.46,26.06c-4.371,11.936-13.227,24.86-24.929,36.386c-11.707,11.528-24.829,20.249-36.945,24.56
					c-11.844,4.208-21.24,3.697-26.458-1.445c-4.584-4.515-5.539-12.375-2.723-22.208c-0.064-0.181-0.175-0.528-0.254-0.762
					c-3.091,10.294-2.153,18.557,2.651,23.29c2.971,2.925,7.237,4.397,12.505,4.397c4.221,0,9.085-0.946,14.435-2.85
					c12.182-4.329,25.357-13.087,37.11-24.661l0.014-0.016c11.743-11.569,20.63-24.546,25.026-36.537
					C949.123,193.028,948.567,183.606,943.211,178.334z"/>
				<path opacity="0.6" fill="#FFFFFF" d="M940.006,221.687c-10.148-5.649-23.964-9.371-38.882-10.483l-0.037-0.002
					c-14.908-1.104-29.118,0.535-40.012,4.618c-10.757,4.031-16.955,9.937-17.471,16.633c-0.496,6.445,4.34,12.95,13.642,18.398
					l-0.396-0.709c-8.763-5.289-13.306-11.513-12.832-17.658c0.496-6.53,6.609-12.312,17.205-16.282
					c10.847-4.067,25.003-5.695,39.869-4.59l0.032,0.002c14.849,1.107,28.586,4.811,38.681,10.43
					c9.874,5.493,15.032,12.114,14.53,18.643c-0.344,4.489-3.231,8.662-8.639,12.147c-0.15,0.228-0.362,0.538-0.561,0.829
					c1.425-0.866,2.567-1.775,3.688-2.724c3.615-3.061,5.646-6.533,5.926-10.224C955.264,234.021,950.027,227.262,940.006,221.687z"
					/>
			</g>
			<g>
				
					<radialGradient id="SVGID_5_" cx="1128.9424" cy="-473.1045" r="8.1538" gradientTransform="matrix(-0.0671 0.4392 -0.4459 -0.0661 755.6523 -264.2402)" gradientUnits="userSpaceOnUse">
					<stop  offset="0" style="stop-color:#FFFFFF;stop-opacity:0.87"/>
					<stop  offset="1" style="stop-color:#000000;stop-opacity:0"/>
				</radialGradient>
				<path fill="url(#SVGID_5_)" d="M890.313,266.446c-2.012-0.296-3.395-2.143-3.091-4.122c0.302-1.975,2.172-3.339,4.184-3.042
					c2.007,0.301,3.39,2.145,3.086,4.122C894.189,265.38,892.315,266.744,890.313,266.446z"/>
				
					<radialGradient id="SVGID_6_" cx="1106.832" cy="-382.4795" r="8.1592" gradientTransform="matrix(-0.0671 0.4392 -0.4459 -0.0661 755.6523 -264.2402)" gradientUnits="userSpaceOnUse">
					<stop  offset="0" style="stop-color:#FFFFFF;stop-opacity:0.87"/>
					<stop  offset="1" style="stop-color:#000000;stop-opacity:0"/>
				</radialGradient>
				<path fill="url(#SVGID_6_)" d="M851.381,250.745c-2.007-0.3-3.385-2.145-3.088-4.121c0.304-1.978,2.174-3.342,4.181-3.046
					c2.012,0.299,3.395,2.147,3.096,4.125C855.266,249.678,853.392,251.042,851.381,250.745z"/>
				
					<radialGradient id="SVGID_7_" cx="1018.9834" cy="-559.1357" r="8.1528" gradientTransform="matrix(-0.0671 0.4392 -0.4459 -0.0661 755.6523 -264.2402)" gradientUnits="userSpaceOnUse">
					<stop  offset="0" style="stop-color:#FFFFFF;stop-opacity:0.87"/>
					<stop  offset="1" style="stop-color:#000000;stop-opacity:0"/>
				</radialGradient>
				<path fill="url(#SVGID_7_)" d="M936.043,223.836c-2.008-0.296-3.385-2.143-3.081-4.12c0.299-1.979,2.171-3.341,4.178-3.043
					c2.008,0.297,3.39,2.143,3.092,4.122C939.929,222.771,938.055,224.135,936.043,223.836z"/>
				
					<radialGradient id="SVGID_8_" cx="1043.6504" cy="304.4863" r="6.8821" gradientTransform="matrix(0.4509 0 0 0.4441 454.9802 39.3298)" gradientUnits="userSpaceOnUse">
					<stop  offset="0" style="stop-color:#FFFFFF;stop-opacity:0.87"/>
					<stop  offset="1" style="stop-color:#000000;stop-opacity:0"/>
				</radialGradient>
				<path fill="url(#SVGID_8_)" d="M925.016,178.239c-2.012-0.298-3.39-2.145-3.091-4.121c0.303-1.978,2.172-3.341,4.184-3.043
					c2.007,0.299,3.39,2.146,3.091,4.122C928.896,177.172,927.023,178.536,925.016,178.239z"/>
				
					<radialGradient id="SVGID_9_" cx="1022.4141" cy="-419.416" r="8.1558" gradientTransform="matrix(-0.0671 0.4392 -0.4459 -0.0661 755.6523 -264.2402)" gradientUnits="userSpaceOnUse">
					<stop  offset="0" style="stop-color:#FFFFFF;stop-opacity:0.87"/>
					<stop  offset="1" style="stop-color:#000000;stop-opacity:0"/>
				</radialGradient>
				<path fill="url(#SVGID_9_)" d="M873.521,216.111c-2.011-0.301-3.394-2.145-3.091-4.125c0.304-1.974,2.173-3.338,4.185-3.042
					c2.007,0.301,3.39,2.147,3.086,4.123C877.397,215.043,875.524,216.405,873.521,216.111z"/>
				
					<radialGradient id="SVGID_10_" cx="1042.2227" cy="-598.8877" r="8.1548" gradientTransform="matrix(-0.0671 0.4392 -0.4459 -0.0661 755.6523 -264.2402)" gradientUnits="userSpaceOnUse">
					<stop  offset="0" style="stop-color:#FFFFFF;stop-opacity:0.87"/>
					<stop  offset="1" style="stop-color:#000000;stop-opacity:0"/>
				</radialGradient>
				<path fill="url(#SVGID_10_)" d="M952.214,236.673c-2.007-0.298-3.39-2.145-3.086-4.121c0.303-1.978,2.172-3.339,4.179-3.046
					c2.012,0.301,3.395,2.148,3.091,4.125C956.096,235.605,954.227,236.97,952.214,236.673z"/>
				
					<radialGradient id="SVGID_11_" cx="953.1953" cy="-444.6738" r="5.2524" gradientTransform="matrix(-0.0671 0.4392 -0.4459 -0.0661 755.6523 -264.2402)" gradientUnits="userSpaceOnUse">
					<stop  offset="0" style="stop-color:#FFFFFF;stop-opacity:0.87"/>
					<stop  offset="1" style="stop-color:#000000;stop-opacity:0"/>
				</radialGradient>
				<path fill="url(#SVGID_11_)" d="M889.619,186.103c-1.291-0.193-2.182-1.383-1.988-2.655c0.197-1.272,1.4-2.149,2.696-1.959
					c1.29,0.193,2.182,1.38,1.988,2.652C892.123,185.414,890.914,186.291,889.619,186.103z"/>
				
					<radialGradient id="SVGID_12_" cx="1034.7031" cy="-392.5693" r="5.249" gradientTransform="matrix(-0.0671 0.4392 -0.4459 -0.0661 755.6523 -264.2402)" gradientUnits="userSpaceOnUse">
					<stop  offset="0" style="stop-color:#FFFFFF;stop-opacity:0.87"/>
					<stop  offset="1" style="stop-color:#000000;stop-opacity:0"/>
				</radialGradient>
				<path fill="url(#SVGID_12_)" d="M860.919,218.456c-1.296-0.19-2.182-1.377-1.988-2.654c0.198-1.27,1.401-2.149,2.696-1.956
					c1.291,0.19,2.182,1.38,1.983,2.652C863.418,217.772,862.215,218.649,860.919,218.456z"/>
				
					<radialGradient id="SVGID_13_" cx="1143.8223" cy="-444.8848" r="5.25" gradientTransform="matrix(-0.0671 0.4392 -0.4459 -0.0661 755.6523 -264.2402)" gradientUnits="userSpaceOnUse">
					<stop  offset="0" style="stop-color:#FFFFFF;stop-opacity:0.87"/>
					<stop  offset="1" style="stop-color:#000000;stop-opacity:0"/>
				</radialGradient>
				<path fill="url(#SVGID_13_)" d="M876.924,269.84c-1.293-0.193-2.181-1.38-1.988-2.652c0.193-1.272,1.401-2.152,2.691-1.961
					c1.296,0.193,2.182,1.383,1.989,2.655C879.423,269.153,878.215,270.03,876.924,269.84z"/>
				
					<radialGradient id="SVGID_14_" cx="1096.832" cy="-555.1729" r="8.1533" gradientTransform="matrix(-0.0671 0.4392 -0.4459 -0.0661 755.6523 -264.2402)" gradientUnits="userSpaceOnUse">
					<stop  offset="0" style="stop-color:#FFFFFF;stop-opacity:0.87"/>
					<stop  offset="1" style="stop-color:#000000;stop-opacity:0"/>
				</radialGradient>
				<path fill="url(#SVGID_14_)" d="M929.057,257.765c-2.007-0.298-3.39-2.142-3.086-4.12s2.173-3.341,4.181-3.042
					c2.01,0.296,3.393,2.142,3.091,4.121C932.938,256.7,931.063,258.064,929.057,257.765z"/>
			</g>
		</g>
	</g>
</g>
</svg>
